<?xml version="1.0" encoding="UTF-8"?>
<svg width="512" height="512" viewBox="0 0 512 512" fill="none" xmlns="http://www.w3.org/2000/svg">
    <circle cx="256" cy="256" r="256" fill="url(#paint0_linear)" />
    <path d="M128 160H192C224 160 256 192 256 224V384C256 352 224 320 192 320H128V160Z" stroke="white" stroke-width="16" stroke-linejoin="round"/>
    <path d="M384 160H320C288 160 256 192 256 224V384C256 352 288 320 320 320H384V160Z" stroke="white" stroke-width="16" stroke-linejoin="round"/>
    <path d="M256 224C256 192 288 160 320 160H384V320H320C288 320 256 352 256 384" stroke="white" stroke-width="16" stroke-linejoin="round"/>
    <path d="M256 224C256 192 224 160 192 160H128V320H192C224 320 256 352 256 384" stroke="white" stroke-width="16" stroke-linejoin="round"/>
    <defs>
        <linearGradient id="paint0_linear" x1="256" y1="0" x2="256" y2="512" gradientUnits="userSpaceOnUse">
            <stop stop-color="#1E90FF"/>
            <stop offset="1" stop-color="#007BFF"/>
        </linearGradient>
    </defs>
</svg>
